<svg width="23" height="23" viewBox="0 0 23 23" fill="none" xmlns="http://www.w3.org/2000/svg">
<path d="M6.28906 14.1953H10.6016V15.0938C10.6016 15.59 11.0038 15.9922 11.5 15.9922C11.9962 15.9922 12.3984 15.59 12.3984 15.0938V14.1953H16.7109C20.1787 14.1953 23 11.374 23 7.90625C23 6.42005 21.7909 5.21094 20.3047 5.21094H15.9922V4.3125C15.9922 2.8263 14.7831 1.61719 13.2969 1.61719H9.70312C8.21693 1.61719 7.00781 2.8263 7.00781 4.3125V5.21094H2.69531C1.20912 5.21094 0 6.42005 0 7.90625C0 11.374 2.82127 14.1953 6.28906 14.1953ZM8.80469 4.3125C8.80469 3.8171 9.20773 3.41406 9.70312 3.41406H13.2969C13.7923 3.41406 14.1953 3.8171 14.1953 4.3125V5.21094H8.80469V4.3125ZM2.69531 7.00781H20.3047C20.8001 7.00781 21.2031 7.41085 21.2031 7.90625C21.2031 10.3832 19.188 12.3984 16.7109 12.3984H6.28906C3.81203 12.3984 1.79688 10.3832 1.79688 7.90625C1.79688 7.41085 2.19991 7.00781 2.69531 7.00781Z" fill="#184B94" fill-opacity="0.45"/>
<path d="M21.3828 16.8906V16.1403C21.3828 15.6441 20.9806 15.2419 20.4844 15.2419C19.9882 15.2419 19.5859 15.6441 19.5859 16.1403V16.8906C19.5859 18.3768 18.3768 19.5859 16.8906 19.5859H6.10938C4.62318 19.5859 3.41406 18.3768 3.41406 16.8906V16.1403C3.41406 15.6441 3.01183 15.2419 2.51562 15.2419C2.01942 15.2419 1.61719 15.6441 1.61719 16.1403V16.8906C1.61719 19.3676 3.63234 21.3828 6.10938 21.3828H16.8906C19.3677 21.3828 21.3828 19.3676 21.3828 16.8906Z" fill="#184B94" fill-opacity="0.45"/>
<path d="M8.80469 9.70312C8.80469 10.1993 9.20692 10.6016 9.70312 10.6016H13.2969C13.7931 10.6016 14.1953 10.1993 14.1953 9.70312C14.1953 9.20692 13.7931 8.80469 13.2969 8.80469H9.70312C9.20692 8.80469 8.80469 9.20692 8.80469 9.70312Z" fill="#184B94" fill-opacity="0.45"/>
</svg>
