<svg width="11" height="11" viewBox="0 0 11 11" fill="none" xmlns="http://www.w3.org/2000/svg">
<path d="M10.4242 1.3883C10.3113 1.27479 10.177 1.18479 10.0291 1.1235C9.88119 1.06222 9.7226 1.03086 9.5625 1.03125H9.15625V0.625C9.15625 0.517256 9.11345 0.413925 9.03726 0.337738C8.96107 0.261551 8.85774 0.21875 8.75 0.21875C8.64225 0.21875 8.53892 0.261551 8.46274 0.337738C8.38655 0.413925 8.34375 0.517256 8.34375 0.625V1.03125H5.90625V0.625C5.90625 0.517256 5.86345 0.413925 5.78726 0.337738C5.71108 0.261551 5.60774 0.21875 5.5 0.21875C5.39226 0.21875 5.28892 0.261551 5.21274 0.337738C5.13655 0.413925 5.09375 0.517256 5.09375 0.625V1.03125H3.875C3.76726 1.03125 3.66392 1.07405 3.58774 1.15024C3.51155 1.22642 3.46875 1.32976 3.46875 1.4375C3.46875 1.54524 3.51155 1.64858 3.58774 1.72476C3.66392 1.80095 3.76726 1.84375 3.875 1.84375H5.09375V2.25C5.09375 2.35774 5.13655 2.46108 5.21274 2.53726C5.28892 2.61345 5.39226 2.65625 5.5 2.65625C5.60774 2.65625 5.71108 2.61345 5.78726 2.53726C5.86345 2.46108 5.90625 2.35774 5.90625 2.25V1.84375H8.34375V2.25C8.34375 2.35774 8.38655 2.46108 8.46274 2.53726C8.53892 2.61345 8.64225 2.65625 8.75 2.65625C8.85774 2.65625 8.96107 2.61345 9.03726 2.53726C9.11345 2.46108 9.15625 2.35774 9.15625 2.25V1.84375H9.5625C9.67024 1.84375 9.77357 1.88655 9.84976 1.96274C9.92595 2.03892 9.96875 2.14226 9.96875 2.25V9.5625C9.96875 9.67024 9.92595 9.77358 9.84976 9.84976C9.77357 9.92595 9.67024 9.96875 9.5625 9.96875H1.4375C1.32976 9.96875 1.22642 9.92595 1.15024 9.84976C1.07405 9.77358 1.03125 9.67024 1.03125 9.5625V2.25C1.03125 2.14226 1.07405 2.03892 1.15024 1.96274C1.22642 1.88655 1.32976 1.84375 1.4375 1.84375H1.84375V2.25C1.84375 2.35774 1.88655 2.46108 1.96274 2.53726C2.03892 2.61345 2.14226 2.65625 2.25 2.65625C2.35774 2.65625 2.46108 2.61345 2.53726 2.53726C2.61345 2.46108 2.65625 2.35774 2.65625 2.25V0.625C2.65625 0.517256 2.61345 0.413925 2.53726 0.337738C2.46108 0.261551 2.35774 0.21875 2.25 0.21875C2.14226 0.21875 2.03892 0.261551 1.96274 0.337738C1.88655 0.413925 1.84375 0.517256 1.84375 0.625V1.03125H1.4375C1.11429 1.03134 0.80435 1.15977 0.575809 1.38831C0.347267 1.61685 0.218836 1.92679 0.21875 2.25V9.5625C0.218836 9.88571 0.347267 10.1957 0.575809 10.4242C0.80435 10.6527 1.11429 10.7812 1.4375 10.7812H9.5625C9.8857 10.7812 10.1956 10.6527 10.4242 10.4242C10.6527 10.1957 10.7812 9.88571 10.7812 9.5625V2.25C10.7816 2.0899 10.7503 1.93131 10.689 1.7834C10.6277 1.6355 10.5377 1.50121 10.4242 1.3883Z" fill="#184B94" fill-opacity="0.45"/>
</svg>
