<svg width="23" height="23" viewBox="0 0 23 23" fill="none" xmlns="http://www.w3.org/2000/svg">
<path d="M9.34375 7.90625H10.7812V9.34375H9.34375V7.90625Z" fill="white"/>
<path d="M9.34375 10.7812H10.7812V12.2188H9.34375V10.7812Z" fill="white"/>
<path d="M9.34375 13.6562H10.7812V15.0938H9.34375V13.6562Z" fill="white"/>
<path d="M12.2188 7.90625H13.6562V9.34375H12.2188V7.90625Z" fill="white"/>
<path d="M12.2188 10.7812H13.6562V12.2188H12.2188V10.7812Z" fill="white"/>
<path d="M12.2188 13.6562H13.6562V15.0938H12.2188V13.6562Z" fill="white"/>
<path d="M20.125 19.4062H16.5312V9.34375H17.9688V17.25C17.9688 17.4406 18.0445 17.6234 18.1793 17.7582C18.3141 17.893 18.4969 17.9687 18.6875 17.9687C18.8781 17.9687 19.0609 17.893 19.1957 17.7582C19.3305 17.6234 19.4062 17.4406 19.4062 17.25V8.625C19.4062 8.43438 19.3305 8.25156 19.1957 8.11677C19.0609 7.98198 18.8781 7.90625 18.6875 7.90625H16.5312V5.75C16.5312 5.63168 16.502 5.51519 16.4462 5.41087C16.3904 5.30655 16.3096 5.21763 16.2112 5.152L11.8987 2.277C11.7806 2.19837 11.6419 2.15642 11.5 2.15642C11.3581 2.15642 11.2194 2.19837 11.1013 2.277L6.78881 5.152C6.69036 5.21763 6.60964 5.30655 6.55381 5.41087C6.49797 5.51519 6.46876 5.63168 6.46875 5.75V7.90625H4.3125C4.12188 7.90625 3.93906 7.98198 3.80427 8.11677C3.66948 8.25156 3.59375 8.43438 3.59375 8.625V19.4062H2.875C2.68438 19.4062 2.50156 19.482 2.36677 19.6168C2.23198 19.7516 2.15625 19.9344 2.15625 20.125C2.15625 20.3156 2.23198 20.4984 2.36677 20.6332C2.50156 20.768 2.68438 20.8437 2.875 20.8437H20.125C20.3156 20.8437 20.4984 20.768 20.6332 20.6332C20.768 20.4984 20.8438 20.3156 20.8438 20.125C20.8438 19.9344 20.768 19.7516 20.6332 19.6168C20.4984 19.482 20.3156 19.4062 20.125 19.4062ZM5.03125 9.34375H6.46875V17.25C6.46875 17.4406 6.54448 17.6234 6.67927 17.7582C6.81406 17.893 6.99688 17.9687 7.1875 17.9687C7.37812 17.9687 7.56094 17.893 7.69573 17.7582C7.83052 17.6234 7.90625 17.4406 7.90625 17.25V6.13468L11.5 3.73872L15.0938 6.13468V19.4062H13.6562V17.25C13.6562 17.0594 13.5805 16.8766 13.4457 16.7418C13.3109 16.607 13.1281 16.5312 12.9375 16.5312H10.0625C9.87188 16.5312 9.68906 16.607 9.55427 16.7418C9.41948 16.8766 9.34375 17.0594 9.34375 17.25V19.4062H5.03125V9.34375ZM12.2188 19.4062H10.7812V17.9687H12.2188V19.4062Z" fill="white"/>
</svg>
