<svg width="13" height="11" viewBox="0 0 13 11" fill="none" xmlns="http://www.w3.org/2000/svg">
<path d="M12.25 9.09375H0.75C0.559376 9.09375 0.376559 9.16947 0.241767 9.30427C0.106975 9.43906 0.03125 9.62188 0.03125 9.8125C0.03125 10.0031 0.106975 10.1859 0.241767 10.3207C0.376559 10.4555 0.559376 10.5312 0.75 10.5312H12.25C12.4406 10.5312 12.6234 10.4555 12.7582 10.3207C12.893 10.1859 12.9688 10.0031 12.9688 9.8125C12.9688 9.62188 12.893 9.43906 12.7582 9.30427C12.6234 9.16947 12.4406 9.09375 12.25 9.09375Z" fill="#22389B" fill-opacity="0.45"/>
<path d="M0.75 1.90625H12.25C12.4406 1.90625 12.6234 1.83052 12.7582 1.69573C12.893 1.56094 12.9688 1.37812 12.9688 1.1875C12.9688 0.996876 12.893 0.814059 12.7582 0.679267C12.6234 0.544475 12.4406 0.46875 12.25 0.46875H0.75C0.559376 0.46875 0.376559 0.544475 0.241767 0.679267C0.106975 0.814059 0.03125 0.996876 0.03125 1.1875C0.03125 1.37812 0.106975 1.56094 0.241767 1.69573C0.376559 1.83052 0.559376 1.90625 0.75 1.90625Z" fill="#22389B" fill-opacity="0.45"/>
<path d="M12.25 4.78125H0.75C0.559376 4.78125 0.376559 4.85698 0.241767 4.99177C0.106975 5.12656 0.03125 5.30938 0.03125 5.5C0.03125 5.69062 0.106975 5.87344 0.241767 6.00823C0.376559 6.14303 0.559376 6.21875 0.75 6.21875H12.25C12.4406 6.21875 12.6234 6.14303 12.7582 6.00823C12.893 5.87344 12.9688 5.69062 12.9688 5.5C12.9688 5.30938 12.893 5.12656 12.7582 4.99177C12.6234 4.85698 12.4406 4.78125 12.25 4.78125Z" fill="#22389B" fill-opacity="0.45"/>
</svg>
