<svg width="23" height="23" viewBox="0 0 23 23" fill="none" xmlns="http://www.w3.org/2000/svg">
<path d="M17.25 15.0938H5.75C5.55938 15.0938 5.37656 15.1695 5.24177 15.3043C5.10698 15.4391 5.03125 15.6219 5.03125 15.8125C5.03125 16.0031 5.10698 16.1859 5.24177 16.3207C5.37656 16.4555 5.55938 16.5312 5.75 16.5312H17.25C17.4406 16.5312 17.6234 16.4555 17.7582 16.3207C17.893 16.1859 17.9688 16.0031 17.9688 15.8125C17.9688 15.6219 17.893 15.4391 17.7582 15.3043C17.6234 15.1695 17.4406 15.0938 17.25 15.0938Z" fill="#22389B" fill-opacity="0.45"/>
<path d="M5.75 7.90625H17.25C17.4406 7.90625 17.6234 7.83052 17.7582 7.69573C17.893 7.56094 17.9688 7.37812 17.9688 7.1875C17.9688 6.99688 17.893 6.81406 17.7582 6.67927C17.6234 6.54448 17.4406 6.46875 17.25 6.46875H5.75C5.55938 6.46875 5.37656 6.54448 5.24177 6.67927C5.10698 6.81406 5.03125 6.99688 5.03125 7.1875C5.03125 7.37812 5.10698 7.56094 5.24177 7.69573C5.37656 7.83052 5.55938 7.90625 5.75 7.90625Z" fill="#22389B" fill-opacity="0.45"/>
<path d="M17.25 10.7812H5.75C5.55938 10.7812 5.37656 10.857 5.24177 10.9918C5.10698 11.1266 5.03125 11.3094 5.03125 11.5C5.03125 11.6906 5.10698 11.8734 5.24177 12.0082C5.37656 12.143 5.55938 12.2188 5.75 12.2188H17.25C17.4406 12.2188 17.6234 12.143 17.7582 12.0082C17.893 11.8734 17.9688 11.6906 17.9688 11.5C17.9688 11.3094 17.893 11.1266 17.7582 10.9918C17.6234 10.857 17.4406 10.7812 17.25 10.7812Z" fill="#22389B" fill-opacity="0.45"/>
</svg>
