<svg width="23" height="23" viewBox="0 0 23 23" fill="none" xmlns="http://www.w3.org/2000/svg">
<path d="M9.70312 23H13.2969C13.7931 23 14.1953 22.5978 14.1953 22.1016C14.1953 21.6054 13.7931 21.2031 13.2969 21.2031H9.70312C9.20692 21.2031 8.80469 21.6054 8.80469 22.1016C8.80469 22.5978 9.20692 23 9.70312 23Z" fill="#22389B" fill-opacity="0.45"/>
<path d="M11.5 0C11.0038 0 10.6016 0.402231 10.6016 0.898438V1.86134C7.55788 2.29861 5.21094 4.92317 5.21094 8.08594V13.6094C5.21094 13.926 5.06831 14.214 4.8561 14.3261C3.9666 14.7958 3.41406 15.7096 3.41406 16.7109C3.41406 18.1971 4.62318 19.4062 6.10938 19.4062H16.8906C18.3768 19.4062 19.5859 18.1971 19.5859 16.7109C19.5859 15.7096 19.0334 14.7958 18.1439 14.3261C17.9316 14.214 17.7891 13.926 17.7891 13.6094V8.08594C17.7891 4.92317 15.4421 2.29861 12.3984 1.86134V0.898438C12.3984 0.402231 11.9962 0 11.5 0V0ZM15.9922 8.08594V13.6094C15.9922 14.604 16.4952 15.4875 17.3049 15.9151C17.6035 16.0727 17.7891 16.3777 17.7891 16.7109C17.7891 17.2063 17.386 17.6094 16.8906 17.6094H6.10938C5.61398 17.6094 5.21094 17.2063 5.21094 16.7109C5.21094 16.3777 5.39646 16.0727 5.69511 15.9151C6.50482 15.4875 7.00781 14.604 7.00781 13.6094V8.08594C7.00781 5.60895 9.02301 3.59375 11.5 3.59375C13.977 3.59375 15.9922 5.60895 15.9922 8.08594Z" fill="#22389B" fill-opacity="0.45"/>
</svg>
