<svg width="13" height="17" viewBox="0 0 13 17" fill="none" xmlns="http://www.w3.org/2000/svg">
<path d="M6.5 7.96875C7.59849 7.96875 8.49219 7.07505 8.49219 5.97656C8.49219 4.87807 7.59849 3.98438 6.5 3.98438C5.40151 3.98438 4.50781 4.87807 4.50781 5.97656C4.50781 7.07505 5.40151 7.96875 6.5 7.96875ZM6.5 5.3125C6.86616 5.3125 7.16406 5.6104 7.16406 5.97656C7.16406 6.34273 6.86616 6.64062 6.5 6.64062C6.13384 6.64062 5.83594 6.34273 5.83594 5.97656C5.83594 5.6104 6.13384 5.3125 6.5 5.3125Z" fill="#22389B" fill-opacity="0.45"/>
<path d="M12.4766 5.97656C12.4766 2.68109 9.79548 0 6.5 0C3.20452 0 0.523438 2.68109 0.523438 5.97656C0.523438 7.28028 0.935887 8.51929 1.71623 9.55964L4.90565 13.8119C5.28028 14.3112 5.87631 14.6094 6.5 14.6094C7.12369 14.6094 7.71972 14.3112 8.09438 13.8118L11.2838 9.55964C12.0641 8.51929 12.4766 7.28028 12.4766 5.97656ZM10.2213 8.7627L7.03195 13.0148C6.90491 13.1842 6.71104 13.2812 6.5 13.2812C6.28896 13.2812 6.09509 13.1842 5.96809 13.0149L2.77869 8.7627C2.17217 7.95407 1.85156 6.99062 1.85156 5.97656C1.85156 3.41341 3.93685 1.32812 6.5 1.32812C9.06315 1.32812 11.1484 3.41341 11.1484 5.97656C11.1484 6.99062 10.8278 7.95407 10.2213 8.7627Z" fill="#22389B" fill-opacity="0.45"/>
<path d="M9.82031 16.3359C9.82031 15.9692 9.52301 15.6719 9.15625 15.6719H3.84375C3.47699 15.6719 3.17969 15.9692 3.17969 16.3359C3.17969 16.7027 3.47699 17 3.84375 17H9.15625C9.52301 17 9.82031 16.7027 9.82031 16.3359Z" fill="#22389B" fill-opacity="0.45"/>
</svg>
