<svg width="19" height="19" viewBox="0 0 19 19" fill="none" xmlns="http://www.w3.org/2000/svg">
<path d="M17.4163 16.625V6.33333C17.4163 6.12339 17.3329 5.92206 17.1844 5.77363L13.2261 1.81529C13.0776 1.66681 12.8763 1.58338 12.6663 1.58333H2.37467C2.16471 1.58333 1.96335 1.66674 1.81488 1.81521C1.66642 1.96367 1.58301 2.16504 1.58301 2.375V16.625C1.58301 16.835 1.66642 17.0363 1.81488 17.1848C1.96335 17.3333 2.16471 17.4167 2.37467 17.4167H16.6247C16.8346 17.4167 17.036 17.3333 17.1845 17.1848C17.3329 17.0363 17.4163 16.835 17.4163 16.625ZM11.8747 15.8333H7.12468V11.875H11.8747V15.8333ZM15.833 15.8333H13.458V11.0833C13.458 10.8734 13.3746 10.672 13.2261 10.5235C13.0777 10.3751 12.8763 10.2917 12.6663 10.2917H6.33301C6.12305 10.2917 5.92168 10.3751 5.77322 10.5235C5.62475 10.672 5.54134 10.8734 5.54134 11.0833V15.8333H3.16634V3.16667H12.3386L15.833 6.66108V15.8333Z" fill="white"/>
<path d="M9.50033 6.33333H6.33366C6.1237 6.33333 5.92233 6.41674 5.77387 6.56521C5.6254 6.71367 5.54199 6.91504 5.54199 7.125C5.54199 7.33496 5.6254 7.53633 5.77387 7.68479C5.92233 7.83326 6.1237 7.91667 6.33366 7.91667H9.50033C9.71029 7.91667 9.91166 7.83326 10.0601 7.68479C10.2086 7.53633 10.292 7.33496 10.292 7.125C10.292 6.91504 10.2086 6.71367 10.0601 6.56521C9.91166 6.41674 9.71029 6.33333 9.50033 6.33333Z" fill="white"/>
</svg>
