<svg width="17" height="19" viewBox="0 0 17 19" fill="none" xmlns="http://www.w3.org/2000/svg">
<path d="M16.0828 0.993594C15.9835 0.928178 15.8695 0.888427 15.7511 0.877902C15.6326 0.867378 15.5134 0.886409 15.4041 0.933291L5.47773 5.1875H1.3125C1.12188 5.1875 0.939059 5.26323 0.804267 5.39802C0.669475 5.53281 0.59375 5.71563 0.59375 5.90625V11.6562C0.59375 11.8469 0.669475 12.0297 0.804267 12.1645C0.939059 12.2993 1.12188 12.375 1.3125 12.375H4.90625V16.6875H3.46875V14.5312C3.46875 14.3406 3.39302 14.1578 3.25823 14.023C3.12344 13.8882 2.94062 13.8125 2.75 13.8125C2.55938 13.8125 2.37656 13.8882 2.24177 14.023C2.10698 14.1578 2.03125 14.3406 2.03125 14.5312V17.4062C2.03125 17.5969 2.10698 17.7797 2.24177 17.9145C2.37656 18.0493 2.55938 18.125 2.75 18.125H5.625C5.81562 18.125 5.99844 18.0493 6.13323 17.9145C6.26802 17.7797 6.34375 17.5969 6.34375 17.4062V12.7462L15.4043 16.6292C15.5136 16.6761 15.6328 16.6952 15.7513 16.6847C15.8697 16.6742 15.9837 16.6344 16.083 16.5689C16.1823 16.5034 16.2638 16.4143 16.3202 16.3095C16.3766 16.2048 16.4062 16.0877 16.4062 15.9688V1.59375C16.4062 1.47476 16.3767 1.35763 16.3202 1.25288C16.2638 1.14813 16.1822 1.05904 16.0828 0.993594ZM14.9688 14.8787L6.30623 11.1663C6.09016 11.0583 5.85993 10.9813 5.62234 10.9375H2.03125V6.625H4.90625V8.78125C4.90625 8.97187 4.98198 9.15469 5.11677 9.28948C5.25156 9.42427 5.43438 9.5 5.625 9.5C5.81562 9.5 5.99844 9.42427 6.13323 9.28948C6.26802 9.15469 6.34375 8.97187 6.34375 8.78125V6.38005L14.9688 2.68381V14.8787Z" fill="#184B94"/>
</svg>
