<svg width="27" height="27" viewBox="0 0 27 27" fill="none" xmlns="http://www.w3.org/2000/svg">
<path d="M5.0625 7.84096H16.1747C16.3008 8.19728 16.5052 8.52077 16.7729 8.78765C16.9318 8.94343 17.1459 9.03015 17.3684 9.02895C17.5909 9.02775 17.804 8.93874 17.9613 8.78126C18.1185 8.62379 18.2072 8.41059 18.2081 8.18805C18.209 7.96551 18.122 7.75162 17.966 7.5929C17.8875 7.51467 17.8253 7.42173 17.7829 7.3194C17.7405 7.21707 17.7187 7.10737 17.7187 6.99659C17.7188 6.88582 17.7408 6.77615 17.7833 6.67387C17.8259 6.57159 17.8882 6.47873 17.9667 6.4006C18.127 6.24649 18.3407 6.16049 18.5631 6.16065C18.7854 6.1608 18.999 6.24711 19.159 6.40144C19.2374 6.4796 19.2996 6.57245 19.342 6.67468C19.3844 6.7769 19.4062 6.88649 19.4062 6.99717C19.4062 7.10785 19.3844 7.21744 19.342 7.31967C19.2996 7.42189 19.2374 7.51474 19.159 7.5929C19.0017 7.75135 18.9135 7.96569 18.9138 8.189C18.9141 8.41231 19.0029 8.62641 19.1607 8.78442C19.3185 8.94244 19.5324 9.03149 19.7558 9.0321C19.9791 9.0327 20.1935 8.94481 20.3522 8.78765C20.8269 8.31292 21.0936 7.66911 21.0938 6.99777C21.0939 6.32643 20.8275 5.6825 20.353 5.20754C19.8706 4.74765 19.2296 4.49103 18.5631 4.49088C17.8966 4.49072 17.2555 4.74703 16.7728 5.20669C16.5052 5.47363 16.3008 5.79715 16.1747 6.15347H5.0625C4.83872 6.15347 4.62411 6.24236 4.46588 6.40059C4.30765 6.55883 4.21875 6.77344 4.21875 6.99721C4.21875 7.22099 4.30765 7.4356 4.46588 7.59384C4.62411 7.75207 4.83872 7.84096 5.0625 7.84096Z" fill="#184B94" fill-opacity="0.45"/>
<path d="M21.9376 12.9035H10.8254C10.6998 12.5473 10.4956 12.224 10.228 11.9575C9.74556 11.4976 9.10464 11.241 8.4381 11.2409C7.77156 11.2407 7.13052 11.497 6.64783 11.9567C6.173 12.4316 5.90625 13.0756 5.90625 13.7472C5.90625 14.4187 6.173 15.0628 6.64783 15.5377C6.80627 15.6959 7.02107 15.7847 7.24499 15.7846C7.4689 15.7844 7.68359 15.6953 7.84182 15.5369C8.00006 15.3785 8.08887 15.1637 8.08873 14.9397C8.08859 14.7158 7.9995 14.5011 7.84106 14.3429C7.76263 14.2647 7.70042 14.1717 7.658 14.0694C7.61557 13.9671 7.59377 13.8574 7.59384 13.7466C7.59391 13.6358 7.61585 13.5261 7.65841 13.4239C7.70096 13.3216 7.76329 13.2287 7.84182 13.1506C8.00208 12.9965 8.21582 12.9105 8.43815 12.9106C8.66047 12.9108 8.87409 12.9971 9.03413 13.1514C9.11249 13.2296 9.17466 13.3225 9.21709 13.4247C9.25951 13.5269 9.28134 13.6365 9.28134 13.7472C9.28134 13.8579 9.25951 13.9674 9.21709 14.0697C9.17466 14.1719 9.11249 14.2647 9.03413 14.3429C8.87676 14.5014 8.78858 14.7157 8.78888 14.939C8.78919 15.1623 8.87796 15.3764 9.03576 15.5344C9.19356 15.6924 9.40754 15.7815 9.63085 15.7821C9.85416 15.7827 10.0686 15.6948 10.2273 15.5377C10.4949 15.2708 10.6994 14.9473 10.8255 14.591H21.9376C22.1614 14.591 22.376 14.5021 22.5342 14.3438C22.6925 14.1856 22.7814 13.971 22.7814 13.7472C22.7814 13.5234 22.6925 13.3088 22.5342 13.1506C22.376 12.9924 22.1614 12.9035 21.9376 12.9035Z" fill="#184B94" fill-opacity="0.45"/>
<path d="M16.7728 18.7067C16.5052 18.9736 16.3008 19.2971 16.1746 19.6535H5.0625C4.83872 19.6535 4.62411 19.7424 4.46588 19.9006C4.30765 20.0588 4.21875 20.2734 4.21875 20.4972C4.21875 20.721 4.30765 20.9356 4.46588 21.0938C4.62411 21.2521 4.83872 21.341 5.0625 21.341H16.1747C16.3008 21.6973 16.5052 22.0208 16.7729 22.2877C16.9316 22.4448 17.146 22.5327 17.3693 22.5321C17.5926 22.5315 17.8066 22.4424 17.9644 22.2844C18.1222 22.1264 18.211 21.9123 18.2113 21.689C18.2116 21.4657 18.1234 21.2514 17.9661 21.0929C17.8876 21.0147 17.8254 20.9217 17.783 20.8194C17.7406 20.7171 17.7188 20.6074 17.7188 20.4966C17.7189 20.3858 17.7408 20.2762 17.7834 20.1739C17.826 20.0716 17.8883 19.9787 17.9668 19.9006C18.1271 19.7465 18.3408 19.6605 18.5631 19.6607C18.7855 19.6608 18.9991 19.7471 19.1591 19.9015C19.2375 19.9796 19.2997 20.0725 19.3421 20.1747C19.3845 20.2769 19.4063 20.3865 19.4063 20.4972C19.4063 20.6079 19.3845 20.7175 19.3421 20.8197C19.2997 20.9219 19.2375 21.0148 19.1591 21.0929C19.0017 21.2514 18.9136 21.4657 18.9139 21.689C18.9142 21.9123 19.0029 22.1264 19.1607 22.2844C19.3185 22.4424 19.5325 22.5315 19.7558 22.5321C19.9792 22.5327 20.1936 22.4448 20.3523 22.2877C20.8269 21.8129 21.0937 21.1691 21.0938 20.4978C21.094 19.8264 20.8276 19.1825 20.3531 18.7075C19.8706 18.2476 19.2297 17.991 18.5631 17.9908C17.8966 17.9907 17.2555 18.247 16.7728 18.7067Z" fill="#184B94" fill-opacity="0.45"/>
</svg>
