<svg width="17" height="17" viewBox="0 0 17 17" fill="none" xmlns="http://www.w3.org/2000/svg">
<path d="M16.4163 15.625V5.33333C16.4163 5.12339 16.3329 4.92206 16.1844 4.77363L12.2261 0.815291C12.0776 0.666815 11.8763 0.583378 11.6663 0.583333H1.37467C1.16471 0.583333 0.963348 0.666741 0.814882 0.815207C0.666415 0.963673 0.583008 1.16504 0.583008 1.375V15.625C0.583008 15.835 0.666415 16.0363 0.814882 16.1848C0.963348 16.3333 1.16471 16.4167 1.37467 16.4167H15.6247C15.8346 16.4167 16.036 16.3333 16.1845 16.1848C16.3329 16.0363 16.4163 15.835 16.4163 15.625ZM10.8747 14.8333H6.12468V10.875H10.8747V14.8333ZM14.833 14.8333H12.458V10.0833C12.458 9.87337 12.3746 9.67201 12.2261 9.52354C12.0777 9.37508 11.8763 9.29167 11.6663 9.29167H5.33301C5.12305 9.29167 4.92168 9.37508 4.77322 9.52354C4.62475 9.67201 4.54134 9.87337 4.54134 10.0833V14.8333H2.16634V2.16667H11.3386L14.833 5.66108V14.8333Z" fill="white"/>
</svg>
